<mxfile host="app.diagrams.net" agent="Mozilla/5.0 (X11; Linux x86_64; rv:128.0) Gecko/20100101 Firefox/128.0" version="27.0.6">
  <diagram name="Page-1" id="bk9uSKQDOz5UPixXICEc">
    <mxGraphModel dx="2547" dy="1257" grid="0" gridSize="10" guides="1" tooltips="1" connect="1" arrows="1" fold="1" page="0" pageScale="1" pageWidth="850" pageHeight="1100" math="0" shadow="0">
      <root>
        <mxCell id="0" />
        <mxCell id="1" parent="0" />
        <mxCell id="IbNe3cyftD1GP1Xd7RGD-58" style="edgeStyle=none;curved=1;rounded=0;sketch=1;hachureGap=4;jiggle=2;curveFitting=1;orthogonalLoop=1;jettySize=auto;html=1;exitX=1;exitY=0.5;exitDx=0;exitDy=0;fontFamily=Architects Daughter;fontSource=https%3A%2F%2Ffonts.googleapis.com%2Fcss%3Ffamily%3DArchitects%2BDaughter;fontSize=16;startSize=14;endArrow=open;endSize=14;sourcePerimeterSpacing=8;targetPerimeterSpacing=8;" edge="1" parent="1" source="IbNe3cyftD1GP1Xd7RGD-1">
          <mxGeometry relative="1" as="geometry">
            <mxPoint x="-389" y="73" as="targetPoint" />
          </mxGeometry>
        </mxCell>
        <mxCell id="IbNe3cyftD1GP1Xd7RGD-1" value="time between&amp;nbsp; walk-ins" style="ellipse;whiteSpace=wrap;html=1;sketch=1;hachureGap=4;jiggle=2;curveFitting=1;fontFamily=Architects Daughter;fontSource=https%3A%2F%2Ffonts.googleapis.com%2Fcss%3Ffamily%3DArchitects%2BDaughter;fontSize=21;" vertex="1" parent="1">
          <mxGeometry x="-612" y="21" width="160" height="100" as="geometry" />
        </mxCell>
        <mxCell id="IbNe3cyftD1GP1Xd7RGD-6" style="edgeStyle=none;curved=1;rounded=0;sketch=1;hachureGap=4;jiggle=2;curveFitting=1;orthogonalLoop=1;jettySize=auto;html=1;exitX=1;exitY=0.5;exitDx=0;exitDy=0;entryX=0;entryY=0.5;entryDx=0;entryDy=0;fontFamily=Architects Daughter;fontSource=https%3A%2F%2Ffonts.googleapis.com%2Fcss%3Ffamily%3DArchitects%2BDaughter;fontSize=16;startSize=14;endArrow=open;endSize=14;sourcePerimeterSpacing=8;targetPerimeterSpacing=8;" edge="1" parent="1" source="IbNe3cyftD1GP1Xd7RGD-2" target="IbNe3cyftD1GP1Xd7RGD-4">
          <mxGeometry relative="1" as="geometry" />
        </mxCell>
        <mxCell id="IbNe3cyftD1GP1Xd7RGD-7" style="edgeStyle=none;curved=1;rounded=0;sketch=1;hachureGap=4;jiggle=2;curveFitting=1;orthogonalLoop=1;jettySize=auto;html=1;exitX=1;exitY=0.5;exitDx=0;exitDy=0;entryX=0;entryY=0.5;entryDx=0;entryDy=0;fontFamily=Architects Daughter;fontSource=https%3A%2F%2Ffonts.googleapis.com%2Fcss%3Ffamily%3DArchitects%2BDaughter;fontSize=16;startSize=14;endArrow=open;endSize=14;sourcePerimeterSpacing=8;targetPerimeterSpacing=8;" edge="1" parent="1" source="IbNe3cyftD1GP1Xd7RGD-2" target="IbNe3cyftD1GP1Xd7RGD-5">
          <mxGeometry relative="1" as="geometry" />
        </mxCell>
        <mxCell id="IbNe3cyftD1GP1Xd7RGD-2" value="seize cubicle" style="rounded=0;whiteSpace=wrap;html=1;sketch=1;hachureGap=4;jiggle=2;curveFitting=1;fontFamily=Architects Daughter;fontSource=https%3A%2F%2Ffonts.googleapis.com%2Fcss%3Ffamily%3DArchitects%2BDaughter;fontSize=19;" vertex="1" parent="1">
          <mxGeometry x="-262" y="38" width="160" height="80" as="geometry" />
        </mxCell>
        <mxCell id="IbNe3cyftD1GP1Xd7RGD-4" value="&lt;div&gt;minor trauma&amp;nbsp;&lt;/div&gt;&lt;div&gt;treatment&lt;/div&gt;" style="rounded=0;whiteSpace=wrap;html=1;sketch=1;hachureGap=4;jiggle=2;curveFitting=1;fontFamily=Architects Daughter;fontSource=https%3A%2F%2Ffonts.googleapis.com%2Fcss%3Ffamily%3DArchitects%2BDaughter;fontSize=19;" vertex="1" parent="1">
          <mxGeometry x="-5" y="-34" width="160" height="80" as="geometry" />
        </mxCell>
        <mxCell id="IbNe3cyftD1GP1Xd7RGD-64" style="edgeStyle=none;curved=1;rounded=0;sketch=1;hachureGap=4;jiggle=2;curveFitting=1;orthogonalLoop=1;jettySize=auto;html=1;exitX=1;exitY=0.5;exitDx=0;exitDy=0;fontFamily=Architects Daughter;fontSource=https%3A%2F%2Ffonts.googleapis.com%2Fcss%3Ffamily%3DArchitects%2BDaughter;fontSize=16;startSize=14;endArrow=open;endSize=14;sourcePerimeterSpacing=8;targetPerimeterSpacing=8;" edge="1" parent="1" source="IbNe3cyftD1GP1Xd7RGD-5">
          <mxGeometry relative="1" as="geometry">
            <mxPoint x="225" y="86" as="targetPoint" />
          </mxGeometry>
        </mxCell>
        <mxCell id="IbNe3cyftD1GP1Xd7RGD-5" value="non-trauma consultation" style="rounded=0;whiteSpace=wrap;html=1;sketch=1;hachureGap=4;jiggle=2;curveFitting=1;fontFamily=Architects Daughter;fontSource=https%3A%2F%2Ffonts.googleapis.com%2Fcss%3Ffamily%3DArchitects%2BDaughter;fontSize=19;" vertex="1" parent="1">
          <mxGeometry x="-12" y="112" width="160" height="80" as="geometry" />
        </mxCell>
        <mxCell id="IbNe3cyftD1GP1Xd7RGD-66" style="edgeStyle=none;curved=1;rounded=0;sketch=1;hachureGap=4;jiggle=2;curveFitting=1;orthogonalLoop=1;jettySize=auto;html=1;exitX=0;exitY=0.5;exitDx=0;exitDy=0;entryX=0.5;entryY=0;entryDx=0;entryDy=0;fontFamily=Architects Daughter;fontSource=https%3A%2F%2Ffonts.googleapis.com%2Fcss%3Ffamily%3DArchitects%2BDaughter;fontSize=16;startSize=14;endArrow=open;endSize=14;sourcePerimeterSpacing=8;targetPerimeterSpacing=8;dashed=1;dashPattern=8 8;" edge="1" parent="1" source="IbNe3cyftD1GP1Xd7RGD-10" target="IbNe3cyftD1GP1Xd7RGD-2">
          <mxGeometry relative="1" as="geometry">
            <Array as="points">
              <mxPoint x="-163" y="-117" />
            </Array>
          </mxGeometry>
        </mxCell>
        <mxCell id="IbNe3cyftD1GP1Xd7RGD-10" value="cubicle" style="ellipse;whiteSpace=wrap;html=1;fontFamily=Architects Daughter;fontSource=https%3A%2F%2Ffonts.googleapis.com%2Fcss%3Ffamily%3DArchitects%2BDaughter;fontSize=19;sketch=1;curveFitting=1;jiggle=2;" vertex="1" parent="1">
          <mxGeometry x="20" y="-217" width="81" height="83" as="geometry" />
        </mxCell>
        <mxCell id="IbNe3cyftD1GP1Xd7RGD-17" value="exit clinic" style="ellipse;whiteSpace=wrap;html=1;sketch=1;hachureGap=4;jiggle=2;curveFitting=1;fontFamily=Architects Daughter;fontSource=https%3A%2F%2Ffonts.googleapis.com%2Fcss%3Ffamily%3DArchitects%2BDaughter;fontSize=21;" vertex="1" parent="1">
          <mxGeometry x="462" y="23" width="160" height="100" as="geometry" />
        </mxCell>
        <mxCell id="IbNe3cyftD1GP1Xd7RGD-48" value="" style="group" vertex="1" connectable="0" parent="1">
          <mxGeometry x="-391" y="46" width="127" height="63" as="geometry" />
        </mxCell>
        <mxCell id="IbNe3cyftD1GP1Xd7RGD-49" value="" style="endArrow=none;html=1;rounded=0;strokeWidth=1;flowAnimation=0;shadow=0;" edge="1" parent="IbNe3cyftD1GP1Xd7RGD-48">
          <mxGeometry width="50" height="50" relative="1" as="geometry">
            <mxPoint as="sourcePoint" />
            <mxPoint x="126.99999999999999" as="targetPoint" />
          </mxGeometry>
        </mxCell>
        <mxCell id="IbNe3cyftD1GP1Xd7RGD-50" value="" style="endArrow=none;html=1;rounded=0;strokeWidth=2;entryX=1;entryY=1;entryDx=0;entryDy=0;flowAnimation=0;shadow=0;" edge="1" parent="IbNe3cyftD1GP1Xd7RGD-48">
          <mxGeometry width="50" height="50" relative="1" as="geometry">
            <mxPoint x="125.18571428571428" as="sourcePoint" />
            <mxPoint x="125.18571428571428" y="63" as="targetPoint" />
          </mxGeometry>
        </mxCell>
        <mxCell id="IbNe3cyftD1GP1Xd7RGD-51" value="" style="endArrow=none;html=1;rounded=0;strokeWidth=1;flowAnimation=0;shadow=0;" edge="1" parent="IbNe3cyftD1GP1Xd7RGD-48">
          <mxGeometry width="50" height="50" relative="1" as="geometry">
            <mxPoint y="63" as="sourcePoint" />
            <mxPoint x="126.99999999999999" y="63" as="targetPoint" />
          </mxGeometry>
        </mxCell>
        <mxCell id="IbNe3cyftD1GP1Xd7RGD-52" value="" style="endArrow=none;html=1;rounded=0;strokeWidth=1;entryX=1;entryY=1;entryDx=0;entryDy=0;flowAnimation=0;shadow=0;" edge="1" parent="IbNe3cyftD1GP1Xd7RGD-48">
          <mxGeometry width="50" height="50" relative="1" as="geometry">
            <mxPoint x="108.85714285714286" as="sourcePoint" />
            <mxPoint x="108.85714285714286" y="63" as="targetPoint" />
          </mxGeometry>
        </mxCell>
        <mxCell id="IbNe3cyftD1GP1Xd7RGD-53" value="" style="endArrow=none;html=1;rounded=0;strokeWidth=1;entryX=1;entryY=1;entryDx=0;entryDy=0;flowAnimation=0;shadow=0;" edge="1" parent="IbNe3cyftD1GP1Xd7RGD-48">
          <mxGeometry width="50" height="50" relative="1" as="geometry">
            <mxPoint x="90.71428571428572" as="sourcePoint" />
            <mxPoint x="90.71428571428572" y="63" as="targetPoint" />
          </mxGeometry>
        </mxCell>
        <mxCell id="IbNe3cyftD1GP1Xd7RGD-54" value="" style="endArrow=none;html=1;rounded=0;strokeWidth=1;entryX=1;entryY=1;entryDx=0;entryDy=0;flowAnimation=0;shadow=0;" edge="1" parent="IbNe3cyftD1GP1Xd7RGD-48">
          <mxGeometry width="50" height="50" relative="1" as="geometry">
            <mxPoint x="72.57142857142857" as="sourcePoint" />
            <mxPoint x="72.57142857142857" y="63" as="targetPoint" />
          </mxGeometry>
        </mxCell>
        <mxCell id="IbNe3cyftD1GP1Xd7RGD-55" value="" style="endArrow=none;html=1;rounded=0;strokeWidth=1;entryX=1;entryY=1;entryDx=0;entryDy=0;flowAnimation=0;shadow=0;" edge="1" parent="IbNe3cyftD1GP1Xd7RGD-48">
          <mxGeometry width="50" height="50" relative="1" as="geometry">
            <mxPoint x="54.42857142857143" as="sourcePoint" />
            <mxPoint x="54.42857142857143" y="63" as="targetPoint" />
          </mxGeometry>
        </mxCell>
        <mxCell id="IbNe3cyftD1GP1Xd7RGD-56" value="" style="endArrow=none;html=1;rounded=0;strokeWidth=1;entryX=1;entryY=1;entryDx=0;entryDy=0;flowAnimation=0;shadow=0;" edge="1" parent="IbNe3cyftD1GP1Xd7RGD-48">
          <mxGeometry width="50" height="50" relative="1" as="geometry">
            <mxPoint x="36.285714285714285" as="sourcePoint" />
            <mxPoint x="36.285714285714285" y="63" as="targetPoint" />
          </mxGeometry>
        </mxCell>
        <mxCell id="IbNe3cyftD1GP1Xd7RGD-57" value="" style="endArrow=none;html=1;rounded=0;strokeWidth=1;entryX=1;entryY=1;entryDx=0;entryDy=0;flowAnimation=0;shadow=0;" edge="1" parent="IbNe3cyftD1GP1Xd7RGD-48">
          <mxGeometry width="50" height="50" relative="1" as="geometry">
            <mxPoint x="18.142857142857142" as="sourcePoint" />
            <mxPoint x="18.142857142857142" y="63" as="targetPoint" />
          </mxGeometry>
        </mxCell>
        <mxCell id="IbNe3cyftD1GP1Xd7RGD-65" style="edgeStyle=none;curved=1;rounded=0;sketch=1;hachureGap=4;jiggle=2;curveFitting=1;orthogonalLoop=1;jettySize=auto;html=1;entryX=0;entryY=0.5;entryDx=0;entryDy=0;fontFamily=Architects Daughter;fontSource=https%3A%2F%2Ffonts.googleapis.com%2Fcss%3Ffamily%3DArchitects%2BDaughter;fontSize=16;startSize=14;endArrow=open;endSize=14;sourcePerimeterSpacing=8;targetPerimeterSpacing=8;" edge="1" parent="1" source="IbNe3cyftD1GP1Xd7RGD-62" target="IbNe3cyftD1GP1Xd7RGD-17">
          <mxGeometry relative="1" as="geometry" />
        </mxCell>
        <mxCell id="IbNe3cyftD1GP1Xd7RGD-62" value="release cubicle" style="rounded=0;whiteSpace=wrap;html=1;sketch=1;hachureGap=4;jiggle=2;curveFitting=1;fontFamily=Architects Daughter;fontSource=https%3A%2F%2Ffonts.googleapis.com%2Fcss%3Ffamily%3DArchitects%2BDaughter;fontSize=19;" vertex="1" parent="1">
          <mxGeometry x="225" y="38" width="160" height="80" as="geometry" />
        </mxCell>
        <mxCell id="IbNe3cyftD1GP1Xd7RGD-63" style="edgeStyle=none;curved=1;rounded=0;sketch=1;hachureGap=4;jiggle=2;curveFitting=1;orthogonalLoop=1;jettySize=auto;html=1;exitX=1;exitY=0.5;exitDx=0;exitDy=0;entryX=0.025;entryY=0.613;entryDx=0;entryDy=0;entryPerimeter=0;fontFamily=Architects Daughter;fontSource=https%3A%2F%2Ffonts.googleapis.com%2Fcss%3Ffamily%3DArchitects%2BDaughter;fontSize=16;startSize=14;endArrow=open;endSize=14;sourcePerimeterSpacing=8;targetPerimeterSpacing=8;" edge="1" parent="1" source="IbNe3cyftD1GP1Xd7RGD-4" target="IbNe3cyftD1GP1Xd7RGD-62">
          <mxGeometry relative="1" as="geometry" />
        </mxCell>
        <mxCell id="IbNe3cyftD1GP1Xd7RGD-67" style="edgeStyle=none;curved=1;rounded=0;sketch=1;hachureGap=4;jiggle=2;curveFitting=1;orthogonalLoop=1;jettySize=auto;html=1;entryX=1.025;entryY=0.386;entryDx=0;entryDy=0;entryPerimeter=0;fontFamily=Architects Daughter;fontSource=https%3A%2F%2Ffonts.googleapis.com%2Fcss%3Ffamily%3DArchitects%2BDaughter;fontSize=16;startSize=14;endArrow=open;endSize=14;sourcePerimeterSpacing=8;targetPerimeterSpacing=8;exitX=0.5;exitY=0;exitDx=0;exitDy=0;dashed=1;dashPattern=8 8;" edge="1" parent="1" source="IbNe3cyftD1GP1Xd7RGD-62" target="IbNe3cyftD1GP1Xd7RGD-10">
          <mxGeometry relative="1" as="geometry">
            <Array as="points">
              <mxPoint x="316" y="-93" />
            </Array>
          </mxGeometry>
        </mxCell>
        <mxCell id="IbNe3cyftD1GP1Xd7RGD-68" value="" style="shape=table;startSize=0;container=1;collapsible=0;childLayout=tableLayout;fontFamily=Architects Daughter;fontSource=https%3A%2F%2Ffonts.googleapis.com%2Fcss%3Ffamily%3DArchitects%2BDaughter;fontSize=19;" vertex="1" parent="1">
          <mxGeometry x="-612" y="192" width="428" height="194" as="geometry" />
        </mxCell>
        <mxCell id="IbNe3cyftD1GP1Xd7RGD-69" value="" style="shape=tableRow;horizontal=0;startSize=0;swimlaneHead=0;swimlaneBody=0;strokeColor=inherit;top=0;left=0;bottom=0;right=0;collapsible=0;dropTarget=0;fillColor=none;points=[[0,0.5],[1,0.5]];portConstraint=eastwest;fontFamily=Architects Daughter;fontSource=https%3A%2F%2Ffonts.googleapis.com%2Fcss%3Ffamily%3DArchitects%2BDaughter;fontSize=19;" vertex="1" parent="IbNe3cyftD1GP1Xd7RGD-68">
          <mxGeometry width="428" height="49" as="geometry" />
        </mxCell>
        <mxCell id="IbNe3cyftD1GP1Xd7RGD-70" value="&lt;b&gt;ACTIVITY&lt;/b&gt;" style="shape=partialRectangle;html=1;whiteSpace=wrap;connectable=0;strokeColor=inherit;overflow=hidden;fillColor=none;top=0;left=0;bottom=0;right=0;pointerEvents=1;fontFamily=Architects Daughter;fontSource=https%3A%2F%2Ffonts.googleapis.com%2Fcss%3Ffamily%3DArchitects%2BDaughter;fontSize=19;" vertex="1" parent="IbNe3cyftD1GP1Xd7RGD-69">
          <mxGeometry width="214" height="49" as="geometry">
            <mxRectangle width="214" height="49" as="alternateBounds" />
          </mxGeometry>
        </mxCell>
        <mxCell id="IbNe3cyftD1GP1Xd7RGD-71" value="&lt;b&gt;DISTRIBUTION&lt;/b&gt;" style="shape=partialRectangle;html=1;whiteSpace=wrap;connectable=0;strokeColor=inherit;overflow=hidden;fillColor=none;top=0;left=0;bottom=0;right=0;pointerEvents=1;fontFamily=Architects Daughter;fontSource=https%3A%2F%2Ffonts.googleapis.com%2Fcss%3Ffamily%3DArchitects%2BDaughter;fontSize=19;" vertex="1" parent="IbNe3cyftD1GP1Xd7RGD-69">
          <mxGeometry x="214" width="214" height="49" as="geometry">
            <mxRectangle width="214" height="49" as="alternateBounds" />
          </mxGeometry>
        </mxCell>
        <mxCell id="IbNe3cyftD1GP1Xd7RGD-72" value="" style="shape=tableRow;horizontal=0;startSize=0;swimlaneHead=0;swimlaneBody=0;strokeColor=inherit;top=0;left=0;bottom=0;right=0;collapsible=0;dropTarget=0;fillColor=none;points=[[0,0.5],[1,0.5]];portConstraint=eastwest;fontFamily=Architects Daughter;fontSource=https%3A%2F%2Ffonts.googleapis.com%2Fcss%3Ffamily%3DArchitects%2BDaughter;fontSize=19;" vertex="1" parent="IbNe3cyftD1GP1Xd7RGD-68">
          <mxGeometry y="49" width="428" height="49" as="geometry" />
        </mxCell>
        <mxCell id="IbNe3cyftD1GP1Xd7RGD-73" value="time between walk-ins" style="shape=partialRectangle;html=1;whiteSpace=wrap;connectable=0;strokeColor=inherit;overflow=hidden;fillColor=none;top=0;left=0;bottom=0;right=0;pointerEvents=1;fontFamily=Architects Daughter;fontSource=https%3A%2F%2Ffonts.googleapis.com%2Fcss%3Ffamily%3DArchitects%2BDaughter;fontSize=19;" vertex="1" parent="IbNe3cyftD1GP1Xd7RGD-72">
          <mxGeometry width="214" height="49" as="geometry">
            <mxRectangle width="214" height="49" as="alternateBounds" />
          </mxGeometry>
        </mxCell>
        <mxCell id="IbNe3cyftD1GP1Xd7RGD-74" value="&lt;font&gt;exponential(8.0)&lt;/font&gt;" style="shape=partialRectangle;html=1;whiteSpace=wrap;connectable=0;strokeColor=inherit;overflow=hidden;fillColor=none;top=0;left=0;bottom=0;right=0;pointerEvents=1;fontFamily=Architects Daughter;fontSource=https%3A%2F%2Ffonts.googleapis.com%2Fcss%3Ffamily%3DArchitects%2BDaughter;fontSize=19;" vertex="1" parent="IbNe3cyftD1GP1Xd7RGD-72">
          <mxGeometry x="214" width="214" height="49" as="geometry">
            <mxRectangle width="214" height="49" as="alternateBounds" />
          </mxGeometry>
        </mxCell>
        <mxCell id="IbNe3cyftD1GP1Xd7RGD-75" value="" style="shape=tableRow;horizontal=0;startSize=0;swimlaneHead=0;swimlaneBody=0;strokeColor=inherit;top=0;left=0;bottom=0;right=0;collapsible=0;dropTarget=0;fillColor=none;points=[[0,0.5],[1,0.5]];portConstraint=eastwest;fontFamily=Architects Daughter;fontSource=https%3A%2F%2Ffonts.googleapis.com%2Fcss%3Ffamily%3DArchitects%2BDaughter;fontSize=19;" vertex="1" parent="IbNe3cyftD1GP1Xd7RGD-68">
          <mxGeometry y="98" width="428" height="47" as="geometry" />
        </mxCell>
        <mxCell id="IbNe3cyftD1GP1Xd7RGD-76" value="minor trauma treatments" style="shape=partialRectangle;html=1;whiteSpace=wrap;connectable=0;strokeColor=inherit;overflow=hidden;fillColor=none;top=0;left=0;bottom=0;right=0;pointerEvents=1;fontFamily=Architects Daughter;fontSource=https%3A%2F%2Ffonts.googleapis.com%2Fcss%3Ffamily%3DArchitects%2BDaughter;fontSize=19;" vertex="1" parent="IbNe3cyftD1GP1Xd7RGD-75">
          <mxGeometry width="214" height="47" as="geometry">
            <mxRectangle width="214" height="47" as="alternateBounds" />
          </mxGeometry>
        </mxCell>
        <mxCell id="IbNe3cyftD1GP1Xd7RGD-77" value="lognormal(15.0, 1.0)" style="shape=partialRectangle;html=1;whiteSpace=wrap;connectable=0;strokeColor=inherit;overflow=hidden;fillColor=none;top=0;left=0;bottom=0;right=0;pointerEvents=1;fontFamily=Architects Daughter;fontSource=https%3A%2F%2Ffonts.googleapis.com%2Fcss%3Ffamily%3DArchitects%2BDaughter;fontSize=19;" vertex="1" parent="IbNe3cyftD1GP1Xd7RGD-75">
          <mxGeometry x="214" width="214" height="47" as="geometry">
            <mxRectangle width="214" height="47" as="alternateBounds" />
          </mxGeometry>
        </mxCell>
        <mxCell id="IbNe3cyftD1GP1Xd7RGD-78" value="" style="shape=tableRow;horizontal=0;startSize=0;swimlaneHead=0;swimlaneBody=0;strokeColor=inherit;top=0;left=0;bottom=0;right=0;collapsible=0;dropTarget=0;fillColor=none;points=[[0,0.5],[1,0.5]];portConstraint=eastwest;fontFamily=Architects Daughter;fontSource=https%3A%2F%2Ffonts.googleapis.com%2Fcss%3Ffamily%3DArchitects%2BDaughter;fontSize=19;" vertex="1" parent="IbNe3cyftD1GP1Xd7RGD-68">
          <mxGeometry y="145" width="428" height="49" as="geometry" />
        </mxCell>
        <mxCell id="IbNe3cyftD1GP1Xd7RGD-79" value="non-trauma consultation" style="shape=partialRectangle;html=1;whiteSpace=wrap;connectable=0;strokeColor=inherit;overflow=hidden;fillColor=none;top=0;left=0;bottom=0;right=0;pointerEvents=1;fontFamily=Architects Daughter;fontSource=https%3A%2F%2Ffonts.googleapis.com%2Fcss%3Ffamily%3DArchitects%2BDaughter;fontSize=19;" vertex="1" parent="IbNe3cyftD1GP1Xd7RGD-78">
          <mxGeometry width="214" height="49" as="geometry">
            <mxRectangle width="214" height="49" as="alternateBounds" />
          </mxGeometry>
        </mxCell>
        <mxCell id="IbNe3cyftD1GP1Xd7RGD-80" value="lognormal(5.0, 0.1)" style="shape=partialRectangle;html=1;whiteSpace=wrap;connectable=0;strokeColor=inherit;overflow=hidden;fillColor=none;top=0;left=0;bottom=0;right=0;pointerEvents=1;fontFamily=Architects Daughter;fontSource=https%3A%2F%2Ffonts.googleapis.com%2Fcss%3Ffamily%3DArchitects%2BDaughter;fontSize=19;" vertex="1" parent="IbNe3cyftD1GP1Xd7RGD-78">
          <mxGeometry x="214" width="214" height="49" as="geometry">
            <mxRectangle width="214" height="49" as="alternateBounds" />
          </mxGeometry>
        </mxCell>
        <mxCell id="IbNe3cyftD1GP1Xd7RGD-83" value="70%" style="text;strokeColor=none;fillColor=none;html=1;align=center;verticalAlign=middle;whiteSpace=wrap;rounded=0;fontSize=20;fontFamily=Architects Daughter;fontSource=https%3A%2F%2Ffonts.googleapis.com%2Fcss%3Ffamily%3DArchitects%2BDaughter;" vertex="1" parent="1">
          <mxGeometry x="-96" width="60" height="30" as="geometry" />
        </mxCell>
      </root>
    </mxGraphModel>
  </diagram>
</mxfile>
